<?xml version="1.0" encoding="utf-8"?>
<!-- Generator: Adobe Illustrator 25.0.1, SVG Export Plug-In . SVG Version: 6.00 Build 0)  -->
<svg version="1.0" id="Layer_1" xmlns="http://www.w3.org/2000/svg" xmlns:xlink="http://www.w3.org/1999/xlink" x="0px" y="0px"
	 viewBox="0 0 954 535" style="enable-background:new 0 0 954 535;" xml:space="preserve">
<style type="text/css">
	.st0{fill:#161616;}
	.st1{fill:none;}
</style>
<path class="st0" d="M253.8,354.7H264c2.4-0.1,4.4-2,4.5-4.5V235.9c0.1-11.1-8.8-20.2-19.9-20.4c0,0,0,0-0.1,0h-13.2
	c-2.4-0.1-4.4-2-4.4-4.5v-10.3c0.1-11.1-8.8-20.2-19.9-20.3c0,0,0,0-0.1,0h-85.2c-11.1,0.1-20,9.2-19.9,20.3c0,0,0,0,0,0.1v114.8
	c0,11.1,8.8,20.2,19.9,20.4h98.7c0.9,0,1.8,0.3,2.5,0.8l24.1,17.3C252,354.4,252.9,354.7,253.8,354.7z M229.8,319.6H126.2
	c-2.4,0-4.4-1.9-4.4-4.3c0-0.1,0-0.1,0-0.2V200.9c0-2.4,2-4.4,4.4-4.4h84.7c2.4,0.1,4.4,2,4.4,4.5v10.1c0,2.4-2,4.4-4.4,4.5h-63.1
	c-2.4,0.1-4.4,2.1-4.4,4.5v76.2c0,2.4,2,4.4,4.4,4.5h78.8c2.4-0.1,4.4-2.1,4.4-4.5v-60c0-2.4,1.9-4.4,4.4-4.5h12.9
	c2.4,0.1,4.4,2.1,4.4,4.5v93.4c0,1.5-1.1,2.7-2.6,2.8c-0.6,0-1.2-0.2-1.6-0.5l-16.1-11.5C231.6,319.9,230.7,319.6,229.8,319.6
	L229.8,319.6z M213,284.4h-51.7c-1.2,0-2.1-1-2.1-2.1c0,0,0,0,0,0v-48.4c0-1.2,0.9-2.2,2.1-2.2c0,0,0,0,0,0H213c1.2,0,2.1,1,2.1,2.1
	c0,0,0,0,0,0v48.4C215.2,283.4,214.2,284.4,213,284.4C213,284.4,213,284.4,213,284.4z M668.1,204.7c6.7,0.1,12.3-5.2,12.4-11.9
	c0.1-6.7-5.2-12.3-11.9-12.4c-6.7-0.1-12.3,5.2-12.4,11.9c0,0.1,0,0.2,0,0.3C656.1,199.1,661.5,204.6,668.1,204.7z M532.1,222.5
	v-6.8h-19.3V300h19.2v-57.6l22.4-9.5v-19.7h-0.2L532.1,222.5z M457.7,215.6c-12.5,0-22.6,4.2-30.4,12.6c-3.6,4-6.4,8.7-8.3,13.8
	c-1.9,5.3-2.9,10.8-2.9,16.5c0,11.8,3.3,21.6,10,29.2c7.4,8.3,17.6,12.4,30.5,12.4c12.6,0,22.6-4.2,30.3-12.6
	c7.2-8,10.8-18,10.8-30.2s-3.5-22-10.5-29.6C479.8,219.6,470,215.6,457.7,215.6L457.7,215.6z M472.7,275.6c-3.6,4.6-8.7,7-15.1,7
	c-6.8,0-12.5-2.4-16.7-7.1c-2.1-2.3-3.6-5-4.6-7.9c-1.1-3.1-1.7-6.3-1.7-9.6c0-6.8,1.8-12.4,5.4-17.1c4-5.1,9.4-7.7,16.4-7.7
	s12.3,2.4,16.1,7.2c3.6,4.5,5.5,10.4,5.5,17.7C478.1,265.2,476.3,271.1,472.7,275.6L472.7,275.6z M658.4,215.7h19.1v84.4h-19.1
	V215.7z M366.9,215.6c-10.9,0-19.9,3.3-26.8,9.8c-6.5,6-10,14.5-9.8,23.3c-0.2,7.8,2.9,15.4,8.6,20.8c-5,4.1-7.4,8.9-7.4,14.6
	c0,3.1,0.4,6.2,1.2,9.1c0.8,2.8,2.5,5.2,4.8,7c-8.6,4.9-12.8,12.7-12.5,23.5c0.2,9.4,4.2,16.8,11.9,22.4s18,8.5,30.6,8.5
	s22-2.5,28.4-7.4s9.6-12.1,9.6-21.4s-2.5-16.5-7.6-21.5c-3.1-2.9-6.7-5.2-10.6-6.8c-5.8-2.2-11.9-3.8-18.1-4.6
	c-7.7-1.2-13.2-2.6-16.6-4.3c-1.2-0.4-2.3-1.2-3-2.2c-0.5-1.1-0.7-2.2-0.7-3.4c0-1.5,1-3.5,2.9-6.1c4.6,1.5,9.3,2.3,14.1,2.3
	c10.4,0,18.9-3.2,25.6-9.6c3-3,5.4-6.5,7-10.4c1.7-4.2,2.5-8.7,2.4-13.2c0-4.8-1.1-9.5-3.3-13.7c0,0,0-0.1-0.1-0.1h8.1v-16.5
	L366.9,215.6z M353.5,306.8l4,0.7c11.2,1.7,19.1,4,23.6,7c4.1,2.6,6.1,6.1,6.1,10.4c0,9-6.3,13.4-18.9,13.4c-7.4,0-13.4-1.6-18-4.6
	c-2-1.3-3.7-3-4.9-5c-1.2-2-1.8-4.3-1.8-6.6c0.1-2.9,0.9-5.6,2.3-8.1C347.9,310.9,350.4,308.4,353.5,306.8L353.5,306.8z
	 M377.6,258.4c-2.9,2.8-6.8,4.3-10.8,4.3c-5.5,0-9.9-1.6-13.4-4.7c-1.5-1.3-2.7-2.9-3.5-4.7c-0.8-1.7-1.2-3.6-1.2-5.5
	c0-2,0.4-3.9,1.1-5.7c2.4-6.4,7.8-9.6,16.4-9.6c5.1,0,9.2,1.4,12,4.1c2.9,2.8,4.5,6.7,4.4,10.7C382.5,251.4,380.7,255.5,377.6,258.4
	L377.6,258.4z M761.9,234c1.5,4.2,2.3,8.7,2.2,13.2v52.6h-18.8v-4c-5.6,2.6-10.8,4-15.6,4c-5.1,0.1-10.2-0.5-15.1-1.7
	c-3.8-1-7.4-2.7-10.6-5c-5.8-4.5-8.8-10.9-8.8-19.3c0-7.4,3.5-13.8,10.8-18.7c7.8-5.4,18.5-8.1,32-8.1l3.1,0.1c0.3,0,0.6,0,1,0
	s0.7,0.1,1.1,0.1c0.3,0.1,0.7,0.1,1,0.1c0.4,0,0.7,0.1,1,0.1c-0.4-8.3-4-13.3-10.6-14.6c-2.3-0.5-4.6-0.7-7-0.7
	c-2.4,0-4.9,0.2-7.3,0.7c-2.4,0.5-4.7,1.1-7,1.8c-4.9,1.6-8.5,3.5-10.6,5.5l-0.2-0.1l-2.3-17.2c9.1-4.9,19.3-7.3,29.6-7.2
	C746.6,215.6,757.2,221.7,761.9,234L761.9,234z M745.3,279.9v-18.1c-1.4-0.2-2.9-0.3-4.3-0.3h-3.1c-11.3,0-18.4,2.6-21.5,7.7
	c-0.9,1.4-1.3,3.1-1.3,4.7c0,1.5,0.3,3,0.9,4.4c0.7,1.3,1.7,2.4,3,3.2c2.7,1.6,6.6,2.4,11.8,2.4
	C735.8,283.7,740.8,282.3,745.3,279.9L745.3,279.9z M834.7,252.9c3,1.4,5.6,3.3,7.8,5.8c3.6,4,5.5,9.5,5.5,16.5
	c0.1,7-3.1,13.7-8.6,17.9c-6,4.8-14.4,7.2-25.2,7.2c-13,0-23.2-2.2-30.4-6.6v-20.7c0-0.1,0.4,0.3,1.2,1.2c1.3,1.3,2.8,2.4,4.4,3.3
	c2.3,1.4,4.8,2.6,7.4,3.5c6.1,2.1,12.5,3.2,19,3.1c8.8,0,13.2-3,13.2-9c0.1-1.8-0.9-3.5-2.5-4.3c-3-1.6-7.4-2.8-13.2-3.6
	c-4.9-0.6-9.7-1.9-14.4-3.6c-3.4-1.3-6.5-3.2-9.2-5.6c-4.3-4.2-6.5-9.6-6.5-16.2c0-8.1,3.1-14.5,9.2-19.2s14.5-6.9,25.2-6.9
	s19.7,3,27.2,9.2c-0.3,1.4-0.7,2.7-1.1,3.9c-1.2,3.5-2.1,6-2.7,7.4l-1.8,4.6c-0.1,0.2-0.1,0.5-0.2,0.7c-0.5-0.5-0.9-1.1-1.2-1.7
	c-3.2-3.8-8.3-6.3-15-7.5c-2.1-0.5-4.2-0.7-6.4-0.7c-9.3,0-13.9,2.8-13.9,8.6c0,1.9,1.1,3.7,2.9,4.5c3.6,2,8.6,3.5,14.9,4.4
	C826.6,250.1,831.3,251.3,834.7,252.9L834.7,252.9z M602.2,215.6c-10.9,0-19.9,3.3-26.8,9.8c-6.5,6-10,14.5-9.8,23.3
	c-0.2,7.8,2.9,15.4,8.6,20.7c-5,4.1-7.4,8.9-7.4,14.6c0,3.1,0.4,6.2,1.2,9.1c0.8,2.8,2.5,5.2,4.8,7c-8.6,4.9-12.8,12.7-12.5,23.5
	c0.2,9.4,4.2,16.8,11.9,22.4s18,8.5,30.6,8.5s22-2.5,28.4-7.4s9.6-12.1,9.6-21.4s-2.5-16.5-7.6-21.5c-3.1-2.9-6.7-5.2-10.6-6.8
	c-5.8-2.2-11.9-3.8-18.1-4.6c-7.7-1.2-13.2-2.6-16.6-4.3c-1.2-0.4-2.3-1.2-3-2.2c-0.5-1.1-0.7-2.2-0.7-3.4c0-1.5,1-3.5,2.9-6.1
	c4.6,1.5,9.3,2.3,14.1,2.3c10.4,0,18.9-3.2,25.6-9.6c3-3,5.4-6.5,7-10.4c1.7-4.2,2.5-8.7,2.4-13.2c0-4.8-1.1-9.5-3.3-13.7
	c0,0,0-0.1-0.1-0.1h8.1v-16.5L602.2,215.6z M588.8,306.8l4,0.7c11.2,1.7,19.1,4,23.6,7c4.1,2.6,6.1,6.1,6.1,10.4
	c0,9-6.3,13.4-18.9,13.4c-7.4,0-13.4-1.6-18-4.6c-2-1.3-3.7-3-4.9-5c-1.2-2-1.9-4.3-1.8-6.6c0.1-2.9,0.9-5.6,2.3-8.1
	C583.1,310.9,585.7,308.4,588.8,306.8L588.8,306.8z M612.9,258.4c-2.9,2.8-6.8,4.3-10.8,4.3c-5.5,0-9.9-1.6-13.4-4.7
	c-1.5-1.3-2.7-2.9-3.5-4.7c-0.8-1.7-1.2-3.6-1.2-5.5c0-2,0.4-3.9,1.1-5.7c2.4-6.4,7.8-9.6,16.3-9.6c5.1,0,9.2,1.4,12,4.1
	c2.9,2.8,4.5,6.7,4.4,10.7C617.8,251.4,616,255.5,612.9,258.4L612.9,258.4z"/>
<rect x="77" y="157" class="st1" width="800" height="221"/>
</svg>
